<?xml version="1.0" standalone="no"?>
<!DOCTYPE svg PUBLIC "-//W3C//DTD SVG 20010904//EN"
 "http://www.w3.org/TR/2001/REC-SVG-20010904/DTD/svg10.dtd">
<svg version="1.0" xmlns="http://www.w3.org/2000/svg"
 width="200.000000pt" height="200.000000pt" viewBox="0 0 200.000000 200.000000"
 preserveAspectRatio="xMidYMid meet">

<g transform="translate(0.000000,200.000000) scale(0.100000,-0.100000)"
fill="#000000" stroke="none">
<path d="M715 1515 l-560 -213 -3 -86 c-3 -82 -2 -87 20 -94 13 -5 123 -26
246 -47 l222 -39 0 -26 c0 -23 -26 -44 -205 -165 l-206 -140 7 -95 c3 -52 7
-96 8 -96 1 -2 1002 -311 1047 -324 l26 -8 247 579 c210 495 246 586 246 628
0 28 -4 52 -8 55 -5 3 -29 8 -53 11 -33 5 -40 4 -29 -4 8 -6 25 -11 37 -11 12
0 24 -4 28 -9 4 -8 -475 -1012 -494 -1033 -9 -11 -446 136 -446 150 0 6 83 98
185 204 200 209 182 198 290 184 l55 -7 209 343 c218 356 237 391 221 407 -6
5 -102 17 -215 25 -113 9 -230 18 -260 20 -52 5 -85 -7 -615 -209z m850 155
c88 -6 170 -13 182 -16 20 -4 2 -30 -163 -242 -103 -130 -196 -247 -208 -258
l-21 -21 -555 78 c-305 42 -557 78 -560 79 -3 0 229 90 515 200 515 197 521
199 585 195 36 -3 137 -9 225 -15z m-771 -476 c302 -41 553 -77 558 -80 4 -3
8 -37 8 -76 l0 -71 -42 6 c-24 4 -143 24 -265 45 -196 34 -223 37 -223 23 0
-9 -7 -126 -15 -261 -7 -134 -13 -245 -12 -246 1 -1 113 -38 250 -83 l247 -83
0 -70 c0 -68 -1 -70 -22 -64 -52 13 -991 306 -995 309 -2 2 -6 27 -10 56 -5
42 -3 51 10 51 8 0 97 -18 198 -39 101 -22 184 -39 185 -38 1 1 5 113 9 248
l8 245 -247 44 -246 44 0 56 c0 64 2 69 33 63 12 -2 269 -37 571 -79z"/>
</g>
</svg>
