<svg id="Layer_3" enable-background="new 0 0 64 64" height="512" viewBox="0 0 64 64" width="512" xmlns="http://www.w3.org/2000/svg"><path d="m34 22h4v12h-4z" fill="#e47c6e"/><path d="m50 22h4v12h-4z" fill="#e47c6e"/><path d="m58 28h4v12h-4z" fill="#e47c6e"/><path d="m18 22h4v12h-4z" fill="#e47c6e"/><path d="m42 13h4v12h-4z" fill="#78b75b"/><path d="m26 26h4v12h-4z" fill="#78b75b"/><path d="m10 32h4v12h-4z" fill="#78b75b"/><path d="m2 36h4v12h-4z" fill="#78b75b"/><g fill="#8892a0"><path d="m35 2h2v20h-2z"/><path d="m35 34h2v28h-2z"/><path d="m43 2h2v11h-2z"/><path d="m43 25h2v37h-2z"/><path d="m51 2h2v20h-2z"/><path d="m51 34h2v28h-2z"/><path d="m59 2h2v26h-2z"/><path d="m59 40h2v22h-2z"/><path d="m19 2h2v20h-2z"/><path d="m19 34h2v28h-2z"/><path d="m27 2h2v24h-2z"/><path d="m27 38h2v24h-2z"/><path d="m11 2h2v30h-2z"/><path d="m11 44h2v18h-2z"/><path d="m3 2h2v34h-2z"/><path d="m3 48h2v14h-2z"/></g><path d="m2.707 45.707-1.414-1.414 18-18c.391-.391 1.023-.391 1.414 0l7.293 7.293 15.293-15.293c.391-.391 1.023-.391 1.414 0l18 18-1.414 1.414-17.293-17.293-15.293 15.293c-.391.391-1.023.391-1.414 0l-7.293-7.293z" fill="#758190"/></svg>