<svg id="Layer_3" enable-background="new 0 0 64 64" height="512" viewBox="0 0 64 64" width="512" xmlns="http://www.w3.org/2000/svg"><path d="m23 36v7c0 2.761 2.239 5 5 5h8c2.761 0 5-2.239 5-5v-7" fill="#2d4d83"/><circle cx="32" cy="12" fill="#f5b953" r="10"/><circle cx="32" cy="12" fill="#f9d18b" r="7"/><path d="m14 11v17h4l-8 8-8-8h4v-17" fill="#e47c6e"/><path d="m58 11v17h4l-8 8-8-8h4v-17" fill="#e47c6e"/><path d="m33 18.858c1.72-.447 3-2 3-3.858 0-2.206-1.794-4-4-4-1.103 0-2-.897-2-2s.897-2 2-2 2 .897 2 2h2c0-1.858-1.28-3.411-3-3.858v-3.092c-.329-.032-.662-.05-1-.05s-.671.018-1 .05v3.092c-1.72.447-3 2-3 3.858 0 2.206 1.794 4 4 4 1.103 0 2 .897 2 2s-.897 2-2 2-2-.897-2-2h-2c0 1.858 1.28 3.411 3 3.858v3.092c.329.033.662.05 1 .05s.671-.018 1-.05z" fill="#4d5d7a"/><path d="m38 41v-2h-2v-3h-2v3h-4v-3h-2v3h-2v2h2v2h-2v2h2v3h2v-3h4v3h2v-3h2v-2h-2v-2zm-4 2h-4v-2h4z" fill="#4472b2"/><path d="m40 36h-2v-3c0-3.309-2.691-6-6-6s-6 2.691-6 6v3h-2v-3c0-4.411 3.589-8 8-8s8 3.589 8 8z" fill="#4d5d7a"/><path d="m11 29h-2v-17c0-.552.448-1 1-1h12v2h-11z" fill="#c66b60"/><path d="m55 29h-2v-16h-11v-2h12c.552 0 1 .448 1 1z" fill="#c66b60"/><path d="m20 35h24v2h-24z" fill="#8892a0"/><path d="m41 50v7c0 2.761 2.239 5 5 5h8c2.761 0 5-2.239 5-5v-7" fill="#2d4d83"/><path d="m56 55v-2h-2v-3h-2v3h-4v-3h-2v3h-2v2h2v2h-2v2h2v3h2v-3h4v3h2v-3h2v-2h-2v-2zm-4 2h-4v-2h4z" fill="#4472b2"/><path d="m58 50h-2v-3c0-3.309-2.691-6-6-6s-6 2.691-6 6v3h-2v-3c0-4.411 3.589-8 8-8s8 3.589 8 8z" fill="#4d5d7a"/><path d="m38 49h24v2h-24z" fill="#8892a0"/><path d="m5 50v7c0 2.761 2.239 5 5 5h8c2.761 0 5-2.239 5-5v-7" fill="#2d4d83"/><path d="m20 55v-2h-2v-3h-2v3h-4v-3h-2v3h-2v2h2v2h-2v2h2v3h2v-3h4v3h2v-3h2v-2h-2v-2zm-4 2h-4v-2h4z" fill="#4472b2"/><path d="m22 50h-2v-3c0-3.309-2.691-6-6-6s-6 2.691-6 6v3h-2v-3c0-4.411 3.589-8 8-8s8 3.589 8 8z" fill="#4d5d7a"/><path d="m2 49h24v2h-24z" fill="#8892a0"/></svg>