<svg id="Layer_3" enable-background="new 0 0 64 64" height="512" viewBox="0 0 64 64" width="512" xmlns="http://www.w3.org/2000/svg"><g fill="#4d5d7a"><path d="m5.351 8h25.298v1.999h-25.298z" transform="matrix(.949 -.317 .317 .949 -1.923 6.16)"/><path d="m45-3.649h1.999v25.298h-1.999z" transform="matrix(.316 -.949 .949 .316 22.915 49.793)"/><path d="m17 42.351h1.999v25.298h-1.999z" transform="matrix(.316 -.949 .949 .316 -39.87 54.684)"/><path d="m33.351 54h25.298v1.999h-25.298z" transform="matrix(.949 -.317 .317 .949 -15.044 17.388)"/><path d="m59 16h2v32h-2z"/><path d="m3 16h2v32h-2z"/></g><circle cx="32" cy="32" fill="#8bd2f5" r="23"/><path d="m32 8c-13.233 0-24 10.767-24 24s10.767 24 24 24 24-10.767 24-24-10.767-24-24-24zm21.975 23h-8.988c-.186-8.765-2.802-16.181-6.673-20.072 8.757 2.629 15.233 10.574 15.661 20.072zm-20.975 22.901v-14.901h-2v14.901c-5.515-1.049-10-10.65-10-21.901s4.485-20.852 10-21.901v14.901h2v-14.901c5.515 1.049 10 10.65 10 21.901s-4.485 20.852-10 21.901zm-7.314-42.973c-3.87 3.891-6.487 11.307-6.673 20.072h-8.988c.428-9.498 6.904-17.443 15.661-20.072zm-15.661 22.072h8.988c.186 8.765 2.802 16.181 6.673 20.072-8.757-2.629-15.233-10.574-15.661-20.072zm28.289 20.072c3.87-3.891 6.487-11.307 6.673-20.072h8.988c-.428 9.498-6.904 17.443-15.661 20.072z" fill="#66acd7"/><path d="m19 25h26v14h-26z" fill="#fff"/><path d="m32 7c-1.654 0-3-1.346-3-3s1.346-3 3-3 3 1.346 3 3-1.346 3-3 3zm0-4c-.551 0-1 .448-1 1s.449 1 1 1 1-.448 1-1-.449-1-1-1z" fill="#8bd2f5"/><path d="m32 63c-1.654 0-3-1.346-3-3s1.346-3 3-3 3 1.346 3 3-1.346 3-3 3zm0-4c-.551 0-1 .448-1 1s.449 1 1 1 1-.448 1-1-.449-1-1-1z" fill="#8bd2f5"/><path d="m4 53c-1.654 0-3-1.346-3-3s1.346-3 3-3 3 1.346 3 3-1.346 3-3 3zm0-4c-.551 0-1 .448-1 1s.449 1 1 1 1-.448 1-1-.449-1-1-1z" fill="#8bd2f5"/><path d="m60 53c-1.654 0-3-1.346-3-3s1.346-3 3-3 3 1.346 3 3-1.346 3-3 3zm0-4c-.551 0-1 .448-1 1s.449 1 1 1 1-.448 1-1-.449-1-1-1z" fill="#8bd2f5"/><path d="m4 17c-1.654 0-3-1.346-3-3s1.346-3 3-3 3 1.346 3 3-1.346 3-3 3zm0-4c-.551 0-1 .448-1 1s.449 1 1 1 1-.448 1-1-.449-1-1-1z" fill="#8bd2f5"/><path d="m60 17c-1.654 0-3-1.346-3-3s1.346-3 3-3 3 1.346 3 3-1.346 3-3 3zm0-4c-.551 0-1 .448-1 1s.449 1 1 1 1-.448 1-1-.449-1-1-1z" fill="#8bd2f5"/><path d="m32 36h-2c-.552 0-1-.447-1-1v-6c0-.553.448-1 1-1h2c1.654 0 3 1.346 3 3v2c0 1.654-1.346 3-3 3zm-1-2h1c.551 0 1-.448 1-1v-2c0-.552-.449-1-1-1h-1z" fill="#8892a0"/><path d="m27 36h-4c-.552 0-1-.447-1-1v-6c0-.553.448-1 1-1h5v2h-4v4h2v-1h-1v-2h2c.552 0 1 .447 1 1v3c0 .553-.448 1-1 1z" fill="#8892a0"/><path d="m38 36h-2v-7c0-.553.448-1 1-1h4c.552 0 1 .447 1 1v3c0 .553-.448 1-1 1h-3zm0-5h2v-1h-2z" fill="#8892a0"/></svg>