<svg id="filled_outline" height="512" viewBox="0 0 512 512" width="512" xmlns="http://www.w3.org/2000/svg" data-name="filled outline"><path d="m328 192h64v264h-64z" fill="#eda600"/><path d="m392 112h64v344h-64z" fill="#f6bb00"/><path d="m264 272h64v184h-64z" fill="#de9400"/><path d="m200 352h64v104h-64z" fill="#cf8300"/><rect fill="#548aff" height="232" rx="32" width="176" x="24" y="256"/><path d="m56 288h112v40h-112z" fill="#84d8e8"/><path d="m64 360h48v96h-48z" fill="#718799"/><path d="m112 360h48v96h-48z" fill="#f6bb00"/><g fill="#eda600"><path d="m216 184h32v32h-32z"/><path d="m296 104h32v32h-32z"/><path d="m376 24h32v32h-32z"/></g><path d="m56 496h112a40.06838 40.06838 0 0 0 39.19507-32h280.80493v-16h-24v-336a8.00039 8.00039 0 0 0 -8-8h-64a8.00039 8.00039 0 0 0 -8 8v72h-56a8.00039 8.00039 0 0 0 -8 8v72h-56a8.00039 8.00039 0 0 0 -8 8v72h-48v-56a40.001 40.001 0 0 0 -18.79346-33.89209l30.10791-30.10791h28.68555a8.00039 8.00039 0 0 0 8-8v-28.68555l43.31445-43.31445h28.68555a8.00039 8.00039 0 0 0 8-8v-28.68555l43.31445-43.31445h28.68555a8.00039 8.00039 0 0 0 8-8v-8h48v-16h-48v-8a8.00039 8.00039 0 0 0 -8-8h-32a8.00039 8.00039 0 0 0 -8 8v28.68555l-43.31445 43.31445h-28.68555a8.00039 8.00039 0 0 0 -8 8v28.68555l-43.31445 43.31445h-28.68555a8.00039 8.00039 0 0 0 -8 8v28.68555l-35.56592 35.56591a40.24137 40.24137 0 0 0 -4.43408-.25146h-112a40.04584 40.04584 0 0 0 -40 40v168a40.04584 40.04584 0 0 0 40 40zm344-376h48v328h-48zm-64 80h48v248h-48zm-16 80v168h-48v-168zm-64 80v88h-48v-88zm128-328h16v16h-16zm-80 80h16v16h-16zm-80 80h16v16h-16zm-192 96a24.0275 24.0275 0 0 1 24-24h112a24.0275 24.0275 0 0 1 24 24v168a24.0275 24.0275 0 0 1 -24 24h-112a24.0275 24.0275 0 0 1 -24-24z"/><path d="m56 336h112a8.00039 8.00039 0 0 0 8-8v-40a8.00039 8.00039 0 0 0 -8-8h-112a8.00039 8.00039 0 0 0 -8 8v40a8.00039 8.00039 0 0 0 8 8zm8-40h96v24h-96z"/><path d="m160 352h-96a8.00039 8.00039 0 0 0 -8 8v96a8.00039 8.00039 0 0 0 8 8h96a8.00039 8.00039 0 0 0 8-8v-96a8.00039 8.00039 0 0 0 -8-8zm-88 16h32v32h-32zm0 48h32v32h-32zm80 32h-32v-80h32z"/><path d="m344 480h32v16h-32z"/><path d="m280 480h32v16h-32z"/><path d="m216 480h32v16h-32z"/><path d="m408 480h32v16h-32z"/><path d="m480 32h16v16h-16z"/></svg>